<mxfile host="app.diagrams.net" agent="Mozilla/5.0 (Windows NT 10.0; Win64; x64) AppleWebKit/537.36 (KHTML, like Gecko) Chrome/141.0.0.0 Safari/537.36 Edg/141.0.0.0" version="28.2.5">
  <diagram name="Trang-1" id="r--a0LAIZf51SyMWXozF">
    <mxGraphModel dx="1498" dy="671" grid="1" gridSize="10" guides="1" tooltips="1" connect="1" arrows="1" fold="1" page="1" pageScale="1" pageWidth="3300" pageHeight="4681" math="0" shadow="0">
      <root>
        <mxCell id="0" />
        <mxCell id="1" parent="0" />
        <mxCell id="M4qNLbeDpR7BEKtGzwbz-3" value="" style="edgeStyle=orthogonalEdgeStyle;rounded=0;orthogonalLoop=1;jettySize=auto;html=1;" edge="1" parent="1" source="M4qNLbeDpR7BEKtGzwbz-1" target="M4qNLbeDpR7BEKtGzwbz-2">
          <mxGeometry relative="1" as="geometry" />
        </mxCell>
        <mxCell id="M4qNLbeDpR7BEKtGzwbz-1" value="Start" style="strokeWidth=2;html=1;shape=mxgraph.flowchart.start_1;whiteSpace=wrap;" vertex="1" parent="1">
          <mxGeometry x="480" y="180" width="100" height="60" as="geometry" />
        </mxCell>
        <mxCell id="M4qNLbeDpR7BEKtGzwbz-6" value="" style="edgeStyle=orthogonalEdgeStyle;rounded=0;orthogonalLoop=1;jettySize=auto;html=1;" edge="1" parent="1" source="M4qNLbeDpR7BEKtGzwbz-2" target="M4qNLbeDpR7BEKtGzwbz-5">
          <mxGeometry relative="1" as="geometry" />
        </mxCell>
        <mxCell id="M4qNLbeDpR7BEKtGzwbz-2" value="Nhập điểm" style="shape=parallelogram;html=1;strokeWidth=2;perimeter=parallelogramPerimeter;whiteSpace=wrap;rounded=1;arcSize=12;size=0.23;" vertex="1" parent="1">
          <mxGeometry x="450" y="290" width="160" height="60" as="geometry" />
        </mxCell>
        <mxCell id="M4qNLbeDpR7BEKtGzwbz-4" value="End" style="strokeWidth=2;html=1;shape=mxgraph.flowchart.start_1;whiteSpace=wrap;" vertex="1" parent="1">
          <mxGeometry x="290" y="650" width="100" height="60" as="geometry" />
        </mxCell>
        <mxCell id="M4qNLbeDpR7BEKtGzwbz-8" value="" style="edgeStyle=orthogonalEdgeStyle;rounded=0;orthogonalLoop=1;jettySize=auto;html=1;" edge="1" parent="1" source="M4qNLbeDpR7BEKtGzwbz-5" target="M4qNLbeDpR7BEKtGzwbz-7">
          <mxGeometry relative="1" as="geometry" />
        </mxCell>
        <mxCell id="M4qNLbeDpR7BEKtGzwbz-11" value="" style="edgeStyle=orthogonalEdgeStyle;rounded=0;orthogonalLoop=1;jettySize=auto;html=1;" edge="1" parent="1" source="M4qNLbeDpR7BEKtGzwbz-5" target="M4qNLbeDpR7BEKtGzwbz-10">
          <mxGeometry relative="1" as="geometry" />
        </mxCell>
        <mxCell id="M4qNLbeDpR7BEKtGzwbz-5" value="Điểm &amp;lt; 4" style="strokeWidth=2;html=1;shape=mxgraph.flowchart.decision;whiteSpace=wrap;" vertex="1" parent="1">
          <mxGeometry x="480" y="400" width="100" height="100" as="geometry" />
        </mxCell>
        <mxCell id="M4qNLbeDpR7BEKtGzwbz-7" value="Không đạt" style="shape=parallelogram;html=1;strokeWidth=2;perimeter=parallelogramPerimeter;whiteSpace=wrap;rounded=1;arcSize=12;size=0.23;" vertex="1" parent="1">
          <mxGeometry x="290" y="420" width="100" height="60" as="geometry" />
        </mxCell>
        <mxCell id="M4qNLbeDpR7BEKtGzwbz-9" value="Flase" style="text;html=1;align=center;verticalAlign=middle;whiteSpace=wrap;rounded=0;" vertex="1" parent="1">
          <mxGeometry x="410" y="420" width="60" height="30" as="geometry" />
        </mxCell>
        <mxCell id="M4qNLbeDpR7BEKtGzwbz-14" value="" style="edgeStyle=orthogonalEdgeStyle;rounded=0;orthogonalLoop=1;jettySize=auto;html=1;" edge="1" parent="1" source="M4qNLbeDpR7BEKtGzwbz-10" target="M4qNLbeDpR7BEKtGzwbz-13">
          <mxGeometry relative="1" as="geometry" />
        </mxCell>
        <mxCell id="M4qNLbeDpR7BEKtGzwbz-17" value="" style="edgeStyle=orthogonalEdgeStyle;rounded=0;orthogonalLoop=1;jettySize=auto;html=1;" edge="1" parent="1" source="M4qNLbeDpR7BEKtGzwbz-10" target="M4qNLbeDpR7BEKtGzwbz-16">
          <mxGeometry relative="1" as="geometry" />
        </mxCell>
        <mxCell id="M4qNLbeDpR7BEKtGzwbz-10" value="Điểm &amp;lt;= 6" style="strokeWidth=2;html=1;shape=mxgraph.flowchart.decision;whiteSpace=wrap;" vertex="1" parent="1">
          <mxGeometry x="700" y="400" width="100" height="100" as="geometry" />
        </mxCell>
        <mxCell id="M4qNLbeDpR7BEKtGzwbz-12" value="True" style="text;html=1;align=center;verticalAlign=middle;whiteSpace=wrap;rounded=0;" vertex="1" parent="1">
          <mxGeometry x="610" y="420" width="60" height="30" as="geometry" />
        </mxCell>
        <mxCell id="M4qNLbeDpR7BEKtGzwbz-13" value="Trung bình" style="shape=parallelogram;html=1;strokeWidth=2;perimeter=parallelogramPerimeter;whiteSpace=wrap;rounded=1;arcSize=12;size=0.23;" vertex="1" parent="1">
          <mxGeometry x="890" y="420" width="100" height="60" as="geometry" />
        </mxCell>
        <mxCell id="M4qNLbeDpR7BEKtGzwbz-15" value="True" style="text;html=1;align=center;verticalAlign=middle;whiteSpace=wrap;rounded=0;" vertex="1" parent="1">
          <mxGeometry x="820" y="410" width="60" height="30" as="geometry" />
        </mxCell>
        <mxCell id="M4qNLbeDpR7BEKtGzwbz-20" value="" style="edgeStyle=orthogonalEdgeStyle;rounded=0;orthogonalLoop=1;jettySize=auto;html=1;" edge="1" parent="1" source="M4qNLbeDpR7BEKtGzwbz-16" target="M4qNLbeDpR7BEKtGzwbz-19">
          <mxGeometry relative="1" as="geometry" />
        </mxCell>
        <mxCell id="M4qNLbeDpR7BEKtGzwbz-23" value="" style="edgeStyle=orthogonalEdgeStyle;rounded=0;orthogonalLoop=1;jettySize=auto;html=1;" edge="1" parent="1" source="M4qNLbeDpR7BEKtGzwbz-16" target="M4qNLbeDpR7BEKtGzwbz-22">
          <mxGeometry relative="1" as="geometry" />
        </mxCell>
        <mxCell id="M4qNLbeDpR7BEKtGzwbz-16" value="Điểm &amp;lt;= 8" style="strokeWidth=2;html=1;shape=mxgraph.flowchart.decision;whiteSpace=wrap;" vertex="1" parent="1">
          <mxGeometry x="700" y="570" width="100" height="100" as="geometry" />
        </mxCell>
        <mxCell id="M4qNLbeDpR7BEKtGzwbz-18" value="Flase" style="text;html=1;align=center;verticalAlign=middle;whiteSpace=wrap;rounded=0;" vertex="1" parent="1">
          <mxGeometry x="690" y="520" width="60" height="30" as="geometry" />
        </mxCell>
        <mxCell id="M4qNLbeDpR7BEKtGzwbz-19" value="Khá" style="shape=parallelogram;html=1;strokeWidth=2;perimeter=parallelogramPerimeter;whiteSpace=wrap;rounded=1;arcSize=12;size=0.23;" vertex="1" parent="1">
          <mxGeometry x="510" y="590" width="100" height="60" as="geometry" />
        </mxCell>
        <mxCell id="M4qNLbeDpR7BEKtGzwbz-21" value="True" style="text;html=1;align=center;verticalAlign=middle;whiteSpace=wrap;rounded=0;" vertex="1" parent="1">
          <mxGeometry x="630" y="590" width="60" height="30" as="geometry" />
        </mxCell>
        <mxCell id="M4qNLbeDpR7BEKtGzwbz-26" value="" style="edgeStyle=orthogonalEdgeStyle;rounded=0;orthogonalLoop=1;jettySize=auto;html=1;" edge="1" parent="1" source="M4qNLbeDpR7BEKtGzwbz-22" target="M4qNLbeDpR7BEKtGzwbz-25">
          <mxGeometry relative="1" as="geometry" />
        </mxCell>
        <mxCell id="M4qNLbeDpR7BEKtGzwbz-29" value="" style="edgeStyle=orthogonalEdgeStyle;rounded=0;orthogonalLoop=1;jettySize=auto;html=1;" edge="1" parent="1" source="M4qNLbeDpR7BEKtGzwbz-22" target="M4qNLbeDpR7BEKtGzwbz-28">
          <mxGeometry relative="1" as="geometry" />
        </mxCell>
        <mxCell id="M4qNLbeDpR7BEKtGzwbz-22" value="Điểm &amp;lt;= 9" style="strokeWidth=2;html=1;shape=mxgraph.flowchart.decision;whiteSpace=wrap;" vertex="1" parent="1">
          <mxGeometry x="700" y="730" width="100" height="100" as="geometry" />
        </mxCell>
        <mxCell id="M4qNLbeDpR7BEKtGzwbz-24" value="Flase" style="text;html=1;align=center;verticalAlign=middle;whiteSpace=wrap;rounded=0;" vertex="1" parent="1">
          <mxGeometry x="690" y="680" width="60" height="30" as="geometry" />
        </mxCell>
        <mxCell id="M4qNLbeDpR7BEKtGzwbz-25" value="Xuất sắc" style="shape=parallelogram;html=1;strokeWidth=2;perimeter=parallelogramPerimeter;whiteSpace=wrap;rounded=1;arcSize=12;size=0.23;" vertex="1" parent="1">
          <mxGeometry x="510" y="750" width="100" height="60" as="geometry" />
        </mxCell>
        <mxCell id="M4qNLbeDpR7BEKtGzwbz-27" value="True" style="text;html=1;align=center;verticalAlign=middle;whiteSpace=wrap;rounded=0;" vertex="1" parent="1">
          <mxGeometry x="620" y="750" width="60" height="30" as="geometry" />
        </mxCell>
        <mxCell id="M4qNLbeDpR7BEKtGzwbz-28" value="Giỏi" style="shape=parallelogram;html=1;strokeWidth=2;perimeter=parallelogramPerimeter;whiteSpace=wrap;rounded=1;arcSize=12;size=0.23;" vertex="1" parent="1">
          <mxGeometry x="700" y="900" width="100" height="60" as="geometry" />
        </mxCell>
        <mxCell id="M4qNLbeDpR7BEKtGzwbz-31" value="Flase" style="text;html=1;align=center;verticalAlign=middle;whiteSpace=wrap;rounded=0;" vertex="1" parent="1">
          <mxGeometry x="690" y="840" width="60" height="30" as="geometry" />
        </mxCell>
        <mxCell id="M4qNLbeDpR7BEKtGzwbz-33" style="edgeStyle=orthogonalEdgeStyle;rounded=0;orthogonalLoop=1;jettySize=auto;html=1;entryX=1;entryY=0.5;entryDx=0;entryDy=0;entryPerimeter=0;" edge="1" parent="1" source="M4qNLbeDpR7BEKtGzwbz-19" target="M4qNLbeDpR7BEKtGzwbz-4">
          <mxGeometry relative="1" as="geometry" />
        </mxCell>
        <mxCell id="M4qNLbeDpR7BEKtGzwbz-34" style="edgeStyle=orthogonalEdgeStyle;rounded=0;orthogonalLoop=1;jettySize=auto;html=1;entryX=1;entryY=0.5;entryDx=0;entryDy=0;entryPerimeter=0;" edge="1" parent="1" source="M4qNLbeDpR7BEKtGzwbz-25" target="M4qNLbeDpR7BEKtGzwbz-4">
          <mxGeometry relative="1" as="geometry" />
        </mxCell>
        <mxCell id="M4qNLbeDpR7BEKtGzwbz-35" style="edgeStyle=orthogonalEdgeStyle;rounded=0;orthogonalLoop=1;jettySize=auto;html=1;entryX=0.5;entryY=0;entryDx=0;entryDy=0;entryPerimeter=0;" edge="1" parent="1" source="M4qNLbeDpR7BEKtGzwbz-7" target="M4qNLbeDpR7BEKtGzwbz-4">
          <mxGeometry relative="1" as="geometry" />
        </mxCell>
        <mxCell id="M4qNLbeDpR7BEKtGzwbz-36" style="edgeStyle=orthogonalEdgeStyle;rounded=0;orthogonalLoop=1;jettySize=auto;html=1;entryX=0.5;entryY=1;entryDx=0;entryDy=0;entryPerimeter=0;" edge="1" parent="1" source="M4qNLbeDpR7BEKtGzwbz-28" target="M4qNLbeDpR7BEKtGzwbz-4">
          <mxGeometry relative="1" as="geometry" />
        </mxCell>
        <mxCell id="M4qNLbeDpR7BEKtGzwbz-37" style="edgeStyle=orthogonalEdgeStyle;rounded=0;orthogonalLoop=1;jettySize=auto;html=1;entryX=0.794;entryY=0.107;entryDx=0;entryDy=0;entryPerimeter=0;" edge="1" parent="1" source="M4qNLbeDpR7BEKtGzwbz-13" target="M4qNLbeDpR7BEKtGzwbz-4">
          <mxGeometry relative="1" as="geometry">
            <Array as="points">
              <mxPoint x="940" y="520" />
              <mxPoint x="369" y="520" />
            </Array>
          </mxGeometry>
        </mxCell>
      </root>
    </mxGraphModel>
  </diagram>
</mxfile>
